<svg width="52" height="52" viewBox="0 0 52 52" fill="none" xmlns="http://www.w3.org/2000/svg">
<path fill-rule="evenodd" clip-rule="evenodd" d="M23.6899 31.381L33.182 46.7807C33.5973 47.4555 34.2462 47.4477 34.5083 47.4114C34.7705 47.375 35.4012 47.2141 35.6296 46.4484L47.4992 6.3596C47.7069 5.65101 47.3253 5.16823 47.154 4.99692C46.9879 4.82561 46.5129 4.45963 45.8251 4.6543L5.70771 16.4019C4.9472 16.6251 4.78108 17.2637 4.74475 17.5258C4.70841 17.7932 4.69803 18.455 5.37028 18.8781L20.9464 28.6193L34.7082 14.7122C35.4635 13.9491 36.6964 13.9413 37.4621 14.6966C38.2278 15.4519 38.233 16.6874 37.4777 17.4505L23.6899 31.381ZM34.3059 51.3203C32.4993 51.3203 30.8434 50.4015 29.8674 48.8234L19.8043 32.4946L3.30679 22.1771C1.52882 21.0636 0.599596 19.0806 0.887706 16.9963C1.17322 14.9121 2.60339 13.2561 4.61237 12.6669L44.7297 0.919253C46.5752 0.379371 48.553 0.890702 49.9131 2.2456C51.2732 3.61347 51.7794 5.61207 51.2291 7.46532L39.3595 47.5515C38.7651 49.5683 37.1039 50.9933 35.0248 51.271C34.7809 51.3022 34.5447 51.3203 34.3059 51.3203Z" fill="#323232"/>
</svg>
