<svg width="24" height="20" viewBox="0 0 24 20" fill="none" xmlns="http://www.w3.org/2000/svg">
<g clip-path="url(#clip0_47_2395)">
<path d="M20.9066 5.06111C20.9212 5.25798 20.9212 5.45489 20.9212 5.65175C20.9212 11.6564 16.1885 18.5752 7.53854 18.5752C4.87364 18.5752 2.39808 17.8298 0.315674 16.5361C0.694305 16.5783 1.05832 16.5924 1.45152 16.5924C3.65038 16.5924 5.67456 15.8752 7.29097 14.6518C5.22313 14.6096 3.49023 13.3018 2.89316 11.5017C3.18443 11.5439 3.47566 11.572 3.78149 11.572C4.20378 11.572 4.62612 11.5158 5.01927 11.4174C2.86407 10.9955 1.24762 9.16737 1.24762 6.95956V6.90333C1.87377 7.24083 2.60194 7.45177 3.37368 7.47986C2.10677 6.66422 1.27675 5.27205 1.27675 3.69704C1.27675 2.8533 1.50971 2.07987 1.91747 1.40486C4.23288 4.16111 7.71326 5.96108 11.6159 6.15799C11.5431 5.82048 11.4994 5.46896 11.4994 5.11739C11.4994 2.61423 13.5964 0.575195 16.203 0.575195C17.5573 0.575195 18.7805 1.12363 19.6397 2.00957C20.7027 1.8127 21.722 1.433 22.6249 0.912698C22.2754 1.96741 21.5327 2.85335 20.5571 3.41581C21.5037 3.31742 22.4211 3.06424 23.2657 2.71271C22.625 3.61267 21.8241 4.4142 20.9066 5.06111Z" fill="black"/>
</g>
<defs>
<clipPath id="clip0_47_2395">
<rect width="22.95" height="19.125" fill="white" transform="translate(0.315674 0.575195)"/>
</clipPath>
</defs>
</svg>
