<svg aria-hidden="true" style="position: absolute; width: 0; height: 0; overflow: hidden;" version="1.1" xmlns="http://www.w3.org/2000/svg" xmlns:xlink="http://www.w3.org/1999/xlink">
<defs>
<symbol id="icon-Tick" viewBox="-0 0 24 24" fill='none'>
<path d="M4.89163 13.2687L9.16582 17.5427L18.7085 8" style="stroke: var(--fill, #323232)" stroke-width="2.5" stroke-linecap="round" stroke-linejoin="round"/>
</symbol>
<symbol id="icon-Checkbox" viewBox="-0 0 24 24" >
<path d="M9 22H15C20 22 22 20 22 15V9C22 4 20 2 15 2H9C4 2 2 4 2 9V15C2 20 4 22 9 22Z" style="fill:var(--fill); stroke: var(--stroke, #323232)" stroke-width="1.5" stroke-linecap="round" stroke-linejoin="round"/>
<path  d="M7.75 11.9999L10.58 14.8299L16.25 9.16992" style="fill:var(--fill); stroke: var(--stroke, #323232);stroke-width='1.5'"  stroke-linecap="round" stroke-linejoin="round"/>
</symbol>
<symbol id="icon-Checkbox-circle" viewBox="-0 0 24 24" >
<path d="M12 22C17.5 22 22 17.5 22 12C22 6.5 17.5 2 12 2C6.5 2 2 6.5 2 12C2 17.5 6.5 22 12 22Z" style="fill: var(--fill); stroke: var(--stroke, #323232)" stroke-width="1.5" stroke-linecap="round" stroke-linejoin="round"/>
<path d="M7.75 11.9999L10.58 14.8299L16.25 9.16992" style="fill: var(--fill); stroke: var(--stroke, #323232);stroke-width='1.5'"  stroke-linecap="round" stroke-linejoin="round"/>
</symbol>
<symbol id="icon-User" viewBox="-3 0 34 32">
<path fill="none" stroke="#323232" stroke-width="2.6667" stroke-miterlimit="4" stroke-linecap="round" stroke-linejoin="round" style="stroke: var(--stroke, #323232)" d="M12.76 21.305c-6.163 0-11.427 0.932-11.427 4.664s5.232 4.698 11.427 4.698c6.165 0 11.427-0.933 11.427-4.664s-5.23-4.698-11.427-4.698z"></path>
<path fill="none" opacity="0.4" stroke="#323232" stroke-width="2.6667" stroke-miterlimit="4" stroke-linecap="round" stroke-linejoin="round" style="stroke: var(--stroke, #323232)" d="M12.76 15.981c4.045 0 7.324-3.279 7.324-7.324s-3.279-7.324-7.324-7.324c-4.044 0-7.322 3.279-7.322 7.324-0.014 4.031 3.24 7.31 7.273 7.324h0.050z"></path>
</symbol>
<symbol fill="none" id="icon-Signin" viewBox="0 0 25 25">
<path style="stroke: var(--stroke, #323232)" d="M8.90039 7.56023C9.21039 3.96023 11.0604 2.49023 15.1104 2.49023H15.2404C19.7104 2.49023 21.5004 4.28023 21.5004 8.75023V15.2702C21.5004 19.7402 19.7104 21.5302 15.2404 21.5302H15.1104C11.0904 21.5302 9.24039 20.0802 8.91039 16.5402" stroke="#292D32" stroke-width="1.5" stroke-linecap="round" stroke-linejoin="round"/>
<g opacity="0.4">
<path style="stroke: var(--stroke, #323232)" d="M2 12H14.88" stroke="#292D32" stroke-width="1.5" stroke-linecap="round" stroke-linejoin="round"/>
<path style="stroke: var(--stroke, #323232)" d="M12.6504 8.65039L16.0004 12.0004L12.6504 15.3504" stroke="#292D32" stroke-width="1.5" stroke-linecap="round" stroke-linejoin="round"/>
</g>
</symbol>
<symbol fill="none" id="icon-Signout" viewBox="0 0 25 25">
<path style="stroke: var(--stroke, #323232)" d="M8.90039 7.56023C9.21039 3.96023 11.0604 2.49023 15.1104 2.49023H15.2404C19.7104 2.49023 21.5004 4.28023 21.5004 8.75023V15.2702C21.5004 19.7402 19.7104 21.5302 15.2404 21.5302H15.1104C11.0904 21.5302 9.24039 20.0802 8.91039 16.5402" stroke="#292D32" stroke-width="1.5" stroke-linecap="round" stroke-linejoin="round"/>
<g opacity="0.4">
<path style="stroke: var(--stroke, #323232)" d="M14.9991 12H3.61914" stroke="#292D32" stroke-width="1.5" stroke-linecap="round" stroke-linejoin="round"/>
<path style="stroke: var(--stroke, #323232)" d="M5.85 8.65039L2.5 12.0004L5.85 15.3504" stroke="#292D32" stroke-width="1.5" stroke-linecap="round" stroke-linejoin="round"/>
</g>
</symbol>
<symbol id="icon-Light" fill='none' viewBox="0 0 25 25">
<path style="stroke: var(--stroke, #323232)" d="M12 18.5C15.5899 18.5 18.5 15.5899 18.5 12C18.5 8.41015 15.5899 5.5 12 5.5C8.41015 5.5 5.5 8.41015 5.5 12C5.5 15.5899 8.41015 18.5 12 18.5Z" stroke="#292D32" stroke-width="1.5" stroke-linecap="round" stroke-linejoin="round"/>
<path style="stroke: var(--stroke, #323232)" opacity="0.4" d="M19.14 19.14L19.01 19.01M19.01 4.99L19.14 4.86L19.01 4.99ZM4.86 19.14L4.99 19.01L4.86 19.14ZM12 2.08V2V2.08ZM12 22V21.92V22ZM2.08 12H2H2.08ZM22 12H21.92H22ZM4.99 4.99L4.86 4.86L4.99 4.99Z" stroke="#292D32" stroke-width="2" stroke-linecap="round" stroke-linejoin="round"/>
</symbol>
<symbol id="icon-Dark" fill='none' viewBox="0 0 25 25">
<path d="M2.02911 12.42C2.38911 17.57 6.75911 21.76 11.9891 21.99C15.6791 22.15 18.9791 20.43 20.9591 17.72C21.7791 16.61 21.3391 15.87 19.9691 16.12C19.2991 16.24 18.6091 16.29 17.8891 16.26C12.9991 16.06 8.99911 11.97 8.97911 7.13996C8.96911 5.83996 9.23911 4.60996 9.72911 3.48996C10.2691 2.24996 9.61911 1.65996 8.36911 2.18996C4.40911 3.85996 1.69911 7.84996 2.02911 12.42Z" stroke="#292D32" stroke-width="1.5" stroke-linecap="round" stroke-linejoin="round"/>
</symbol>
<symbol id="icon-Arrow-right" fill='none' viewBox="0 0 24 24">
<path d="M12 22C17.5228 22 22 17.5228 22 12C22 6.47715 17.5228 2 12 2C6.47715 2 2 6.47715 2 12C2 17.5228 6.47715 22 12 22Z" style="stroke: var(--stroke, #323232)" stroke-width="1.5" stroke-linecap="round" stroke-linejoin="round"/>
<g opacity="0.54">
<path d="M8.5 12H14.5" style="stroke: var(--stroke, #323232)" stroke-width="1.5" stroke-linecap="round" stroke-linejoin="round"/>
<path d="M12.5 15L15.5 12L12.5 9" style="stroke: var(--stroke, #323232)" stroke-width="1.5" stroke-linecap="round" stroke-linejoin="round"/>
</g>
</symbol>
<symbol id="icon-Arrow-left" fill='none' viewBox="0 0 24 24">
<path d="M12 22C17.5228 22 22 17.5228 22 12C22 6.47715 17.5228 2 12 2C6.47715 2 2 6.47715 2 12C2 17.5228 6.47715 22 12 22Z" style="stroke: var(--stroke, #323232)" stroke-width="1.5" stroke-linecap="round" stroke-linejoin="round"/>
<g opacity="0.4">
<path d="M15.5 12H9.5" style="stroke: var(--stroke, #323232)" stroke-width="1.5" stroke-linecap="round" stroke-linejoin="round"/>
<path d="M11.5 9L8.5 12L11.5 15" style="stroke: var(--stroke, #323232)" stroke-width="1.5" stroke-linecap="round" stroke-linejoin="round"/>
</g>
</symbol>
<symbol id="icon-Buy" fill='none' viewBox="0 0 27 27">
<path style="stroke: var(--stroke, #323232)" d="M3.78227 5.87339C11.0327 4.05315 20.0466 4.16475 22.1299 6.53701C24.2131 8.90926 24.1702 16.8415 21.735 19.0181C19.3012 21.1946 8.73155 21.4015 5.38303 19.0181C1.8453 16.4985 3.89797 8.74789 3.78227 4.05315C3.85169 1.42605 1 1 1 1" stroke="#323232" stroke-width="2" stroke-linecap="round" stroke-linejoin="round"/>
<path style="stroke: var(--stroke, #323232)" opacity='0.4' d="M15.3008 11.7119H19.0754" stroke="#323232" stroke-width="3" stroke-linecap="round" stroke-linejoin="round"/>
<path style="stroke: var(--stroke, #323232)" fill-rule="evenodd" clip-rule="evenodd" d="M5.91861 24.5176C6.32696 24.5176 6.65909 24.8497 6.65909 25.2581C6.65909 25.6678 6.32696 25.9999 5.91861 25.9999C5.50889 25.9999 5.17676 25.6678 5.17676 25.2581C5.17676 24.8497 5.50889 24.5176 5.91861 24.5176Z" fill="black" stroke="#323232" stroke-width="2" stroke-linecap="round" stroke-linejoin="round"/>
<path style="stroke: var(--stroke, #323232)" fill-rule="evenodd" clip-rule="evenodd" d="M19.9827 24.5176C20.3924 24.5176 20.7245 24.8497 20.7245 25.2581C20.7245 25.6678 20.3924 25.9999 19.9827 25.9999C19.5743 25.9999 19.2422 25.6678 19.2422 25.2581C19.2422 24.8497 19.5743 24.5176 19.9827 24.5176Z" fill="black" stroke="#323232" stroke-width="2" stroke-linecap="round" stroke-linejoin="round"/>
</symbol>
<symbol id="icon-Bag" fill='none' viewBox="1 -0.5 24 24">
<path opacity="0.4" d="M7.5 7.67001V6.70001C7.5 4.45001 9.31 2.24001 11.56 2.03001C14.24 1.77001 16.5 3.88001 16.5 6.51001V7.89001" style="stroke: var(--stroke, #323232)" stroke-width="1.5" stroke-miterlimit="10" stroke-linecap="round" stroke-linejoin="round"/>
<path d="M9.0008 22H15.0008C19.0208 22 19.7408 20.39 19.9508 18.43L20.7008 12.43C20.9708 9.99 20.2708 8 16.0008 8H8.0008C3.7308 8 3.0308 9.99 3.3008 12.43L4.0508 18.43C4.2608 20.39 4.9808 22 9.0008 22Z" style="stroke: var(--stroke, #323232)" stroke-width="1.5" stroke-miterlimit="10" stroke-linecap="round" stroke-linejoin="round"/>
<path opacity="0.4" d="M15.4945 12H15.5035" style="stroke: var(--stroke, #323232)" stroke-width="2" stroke-linecap="round" stroke-linejoin="round"/>
<path opacity="0.4" d="M8.49451 12H8.50349" style="stroke: var(--stroke, #323232)" stroke-width="2" stroke-linecap="round" stroke-linejoin="round"/>
</symbol>
<symbol id="icon-Star" fill='none' viewBox="0 0 24 24">
<path d="M5.73937 16C5.84937 15.51 5.64937 14.81 5.29937 14.46L2.86937 12.03C2.10937 11.27 1.80937 10.46 2.02937 9.76C2.25937 9.06 2.96937 8.58 4.02937 8.4L7.14937 7.88C7.59937 7.8 8.14937 7.4 8.35937 6.99L10.0794 3.54C10.5794 2.55 11.2594 2 11.9994 2C12.7394 2 13.4194 2.55 13.9194 3.54L15.6394 6.99C15.7694 7.25 16.0394 7.5 16.3294 7.67L5.55937 18.44C5.41937 18.58 5.17937 18.45 5.21937 18.25L5.73937 16Z" style="fill: var(--star-fill)"/>
<path d="M18.7008 14.4599C18.3408 14.8199 18.1408 15.5099 18.2608 15.9999L18.9508 19.0099C19.2408 20.2599 19.0608 21.1999 18.4408 21.6499C18.1908 21.8299 17.8908 21.9199 17.5408 21.9199C17.0308 21.9199 16.4308 21.7299 15.7708 21.3399L12.8408 19.5999C12.3808 19.3299 11.6208 19.3299 11.1608 19.5999L8.23078 21.3399C7.12078 21.9899 6.17078 22.0999 5.56078 21.6499C5.33078 21.4799 5.16078 21.2499 5.05078 20.9499L17.2108 8.7899C17.6708 8.3299 18.3208 8.1199 18.9508 8.2299L19.9608 8.3999C21.0208 8.5799 21.7308 9.0599 21.9608 9.7599C22.1808 10.4599 21.8808 11.2699 21.1208 12.0299L18.7008 14.4599Z" style="fill: var(--star-fill); opacity:var(--star-opacity)"/>
</symbol>
<symbol id="icon-Gallery" fill='none' viewBox="0 -1.5 27 27">
<path d="M9 22H15C20 22 22 20 22 15V9C22 4 20 2 15 2H9C4 2 2 4 2 9V15C2 20 4 22 9 22Z" style="stroke: var(--stroke, #323232)" stroke-width="1.5" stroke-linecap="round" stroke-linejoin="round"/>
<path opacity="0.4" d="M9 10C10.1046 10 11 9.10457 11 8C11 6.89543 10.1046 6 9 6C7.89543 6 7 6.89543 7 8C7 9.10457 7.89543 10 9 10Z" style="stroke: var(--stroke, #323232)" stroke-width="1.5" stroke-linecap="round" stroke-linejoin="round"/>
<path opacity="0.4" d="M2.66992 18.9501L7.59992 15.6401C8.38992 15.1101 9.52992 15.1701 10.2399 15.7801L10.5699 16.0701C11.3499 16.7401 12.6099 16.7401 13.3899 16.0701L17.5499 12.5001C18.3299 11.8301 19.5899 11.8301 20.3699 12.5001L21.9999 13.9001" style="stroke: var(--stroke, #323232)" stroke-width="1.5" stroke-linecap="round" stroke-linejoin="round"/>
</symbol>
<symbol id="icon-Close" viewBox="5 5 22 22">
<path opacity='0.4' style="fill: var(--stroke, #323232)" d="M8.293 8.286c0.391-0.391 1.024-0.391 1.414 0l14.006 14.006c0.391 0.391 0.391 1.024 0 1.414s-1.024 0.391-1.414 0l-14.007-14.006c-0.391-0.391-0.391-1.024 0-1.414z"></path>
<path style="fill: var(--stroke, #323232)" d="M23.714 8.286c0.391 0.391 0.391 1.024 0 1.414l-14.007 14.006c-0.391 0.391-1.024 0.391-1.414 0s-0.391-1.024 0-1.414l14.007-14.006c0.391-0.391 1.024-0.391 1.414 0z"></path>
</symbol>
<symbol id="icon-Menu" viewBox="2 2 27 27">
<path fill="none" stroke-width="2" stroke-miterlimit="4" stroke-linecap="round" stroke-linejoin="miter" style="stroke: var(--stroke, #323232)" d="M4 9.333h24"></path>
<path fill="none" opacity="0.34" stroke-width="2" stroke-miterlimit="4" stroke-linecap="round" stroke-linejoin="miter" style="stroke: var(--stroke, #323232)" d="M4 16h24"></path>
<path fill="none" stroke-width="2" stroke-miterlimit="4" stroke-linecap="round" stroke-linejoin="miter" style="stroke: var(--stroke, #323232)" d="M4 22.667h24"></path>
</symbol>
<symbol id="icon-Search" fill='none' viewBox="2 2 20 20">
<circle cx="11" cy="11" r="7" style="stroke: var(--stroke, #323232)" stroke-width="2"/>
<path opacity='0.4' d="M11 8C10.606 8 10.2159 8.0776 9.85195 8.22836C9.48797 8.37913 9.15726 8.6001 8.87868 8.87868C8.6001 9.15726 8.37913 9.48797 8.22836 9.85195C8.0776 10.2159 8 10.606 8 11" style="stroke: var(--stroke, #323232)" stroke-width="2" stroke-linecap="round"/>
<path d="M20 20L17 17" style="stroke: var(--stroke, #323232)" stroke-width="2" stroke-linecap="round"/>
</symbol>
<symbol id="icon-Send" viewBox="0 0 32 32">
<path style="fill: var(--stroke, #323232)" d="M14.578 19.311l5.841 9.477c0.256 0.415 0.655 0.41 0.816 0.388s0.549-0.121 0.69-0.593l7.304-24.67c0.128-0.436-0.107-0.733-0.212-0.839-0.102-0.105-0.395-0.331-0.818-0.211l-24.688 7.229c-0.468 0.137-0.57 0.53-0.593 0.692-0.022 0.165-0.029 0.572 0.385 0.832l9.585 5.995 8.469-8.558c0.465-0.47 1.224-0.474 1.695-0.010s0.474 1.225 0.010 1.695l-8.485 8.573zM21.111 31.582c-1.112 0-2.131-0.565-2.731-1.537l-6.193-10.049-10.152-6.349c-1.094-0.685-1.666-1.906-1.489-3.188 0.176-1.283 1.056-2.302 2.292-2.664l24.688-7.229c1.136-0.332 2.353-0.018 3.19 0.816 0.837 0.842 1.148 2.072 0.81 3.212l-7.304 24.668c-0.366 1.241-1.388 2.118-2.668 2.289-0.15 0.019-0.295 0.030-0.442 0.030z"></path>
</symbol>
<symbol id="icon-Social-instagram" viewBox="0 0 31 32">
<path style="fill: var(--stroke, #323232)" d="M15.513 8.828c-4.029 0-7.279 3.199-7.279 7.166s3.25 7.165 7.279 7.165c4.029 0 7.279-3.199 7.279-7.165s-3.25-7.166-7.279-7.166zM15.513 20.652c-2.604 0-4.733-2.089-4.733-4.659s2.122-4.659 4.733-4.659c2.61 0 4.733 2.089 4.733 4.659s-2.129 4.659-4.733 4.659v0zM24.788 8.534c0 0.929-0.76 1.671-1.698 1.671-0.944 0-1.698-0.748-1.698-1.671s0.76-1.671 1.698-1.671c0.938 0 1.698 0.748 1.698 1.671zM29.609 10.231c-0.108-2.239-0.627-4.222-2.293-5.856-1.66-1.634-3.675-2.145-5.949-2.258-2.344-0.131-9.37-0.131-11.714 0-2.268 0.106-4.283 0.617-5.949 2.251s-2.179 3.617-2.293 5.856c-0.133 2.307-0.133 9.224 0 11.531 0.108 2.239 0.627 4.222 2.293 5.856s3.675 2.145 5.949 2.258c2.344 0.131 9.37 0.131 11.714 0 2.274-0.106 4.289-0.617 5.949-2.258 1.66-1.634 2.179-3.617 2.293-5.856 0.133-2.307 0.133-9.217 0-11.525v0zM26.581 24.232c-0.494 1.222-1.451 2.164-2.699 2.657-1.869 0.73-6.304 0.561-8.369 0.561s-6.507 0.162-8.369-0.561c-1.242-0.486-2.198-1.428-2.699-2.657-0.741-1.84-0.57-6.205-0.57-8.238s-0.165-6.405 0.57-8.238c0.494-1.222 1.451-2.164 2.699-2.657 1.869-0.73 6.304-0.561 8.369-0.561s6.506-0.162 8.369 0.561c1.242 0.486 2.198 1.428 2.699 2.657 0.741 1.84 0.57 6.205 0.57 8.238s0.171 6.405-0.57 8.238z"></path>
</symbol>
<symbol id="icon-Social-facebook" viewBox="0 0 22 32">
<path style="fill: var(--stroke, #323232)" d="M18.172 17.474l0.87-5.612h-5.441v-3.642c0-1.535 0.76-3.032 3.197-3.032h2.474v-4.778c0 0-2.245-0.379-4.391-0.379-4.481 0-7.41 2.688-7.41 7.553v4.277h-4.981v5.612h4.981v13.566h6.13v-13.566h4.571z"></path>
</symbol>
<symbol id="icon-Social-twitter" viewBox="0 0 38 32">
<path style="fill: var(--stroke, #323232)" d="M33.451 8.098c0.023 0.315 0.023 0.63 0.023 0.945 0 9.607-7.572 20.678-21.412 20.678-4.264 0-8.225-1.193-11.557-3.263 0.606 0.068 1.188 0.090 1.817 0.090 3.518 0 6.757-1.148 9.343-3.105-3.309-0.068-6.081-2.16-7.037-5.040 0.466 0.068 0.932 0.112 1.421 0.112 0.676 0 1.351-0.090 1.98-0.247-3.448-0.675-6.035-3.6-6.035-7.133v-0.090c1.002 0.54 2.167 0.877 3.402 0.922-2.027-1.305-3.355-3.533-3.355-6.053 0-1.35 0.373-2.587 1.025-3.667 3.705 4.41 9.273 7.29 15.517 7.605-0.116-0.54-0.186-1.102-0.186-1.665 0-4.005 3.355-7.268 7.526-7.268 2.167 0 4.124 0.877 5.499 2.295 1.701-0.315 3.332-0.922 4.776-1.755-0.559 1.688-1.748 3.105-3.308 4.005 1.515-0.157 2.982-0.563 4.334-1.125-1.025 1.44-2.307 2.722-3.775 3.757z"></path>
</symbol>
<symbol id="icon-Union" viewBox="0 0 61 32">
<path fill="#ff7d1e" d="M12.632 0c-6.976 0-12.632 5.655-12.632 12.632s5.655 12.632 12.632 12.632h30.83c-0.017 1.597-0.339 3.376-1.301 5.446 2.967 0.856 6.938-2.908 9.426-5.963 5.229-1.546 9.045-6.385 9.045-12.115 0-6.976-5.655-12.632-12.632-12.632h-35.368z"></path>
</symbol>
<symbol id="icon-Trash" style="fill: var(--fill);" viewBox="0 0 25 25">
<path d="M21 5.97998C17.67 5.64998 14.32 5.47998 10.98 5.47998C9 5.47998 7.02 5.57998 5.04 5.77998L3 5.97998" style="stroke: var(--stroke, #323232)" stroke-width="1.5" stroke-linecap="round" stroke-linejoin="round"/>
<path opacity="0.34" d="M8.5 4.97L8.72 3.66C8.88 2.71 9 2 10.69 2H13.31C15 2 15.13 2.75 15.28 3.67L15.5 4.97" style="stroke: var(--stroke, #323232)" stroke-width="1.5" stroke-linecap="round" stroke-linejoin="round"/>
<path d="M18.8504 9.14014L18.2004 19.2101C18.0904 20.7801 18.0004 22.0001 15.2104 22.0001H8.79039C6.00039 22.0001 5.91039 20.7801 5.80039 19.2101L5.15039 9.14014" style="stroke: var(--stroke, #323232)" stroke-width="1.5" stroke-linecap="round" stroke-linejoin="round"/>
<path opacity="0.34" d="M10.3301 16.5H13.6601" style="stroke: var(--stroke, #323232)" stroke-width="1.5" stroke-linecap="round" stroke-linejoin="round"/>
<path opacity="0.34" d="M9.5 12.5H14.5" style="stroke: var(--stroke, #323232)" stroke-width="1.5" stroke-linecap="round" stroke-linejoin="round"/>
</symbol>

<symbol id="icon-Plus" style="fill: var(--fill);" viewBox="0 0 25 25">
<path d="M12 22C17.5 22 22 17.5 22 12C22 6.5 17.5 2 12 2C6.5 2 2 6.5 2 12C2 17.5 6.5 22 12 22Z" style="stroke: var(--stroke, #323232)" stroke-width="1.5" stroke-linecap="round" stroke-linejoin="round"/>
<g opacity="0.4">
<path d="M8 12H16" style="stroke: var(--stroke, #323232)" stroke-width="1.5" stroke-linecap="round" stroke-linejoin="round"/>
<path d="M12 16V8" style="stroke: var(--stroke, #323232)" stroke-width="1.5" stroke-linecap="round" stroke-linejoin="round"/>
</g>
</symbol>
<symbol id="icon-Minus" style="fill: var(--fill);" viewBox="0 0 25 25">
<path d="M11.9199 22C17.4199 22 21.9199 17.5 21.9199 12C21.9199 6.5 17.4199 2 11.9199 2C6.41992 2 1.91992 6.5 1.91992 12C1.91992 17.5 6.41992 22 11.9199 22Z" style="stroke: var(--stroke, #323232)" stroke-width="1.5" stroke-linecap="round" stroke-linejoin="round"/>
<path opacity="0.4" d="M7.91992 12H15.9199" style="stroke: var(--stroke, #323232)" stroke-width="1.5" stroke-linecap="round" stroke-linejoin="round"/>
</symbol>
<symbol id="icon-Heart" viewBox="0 0 25 25">
<g >
<g >
<path stroke-width="2" fill-rule="evenodd" clip-rule="evenodd" d="M1.25 8.6901C1.25 5.18939 4.07229 2.3501 7.56 2.3501C9.29674 2.3501 10.8646 3.05608 12.0003 4.19481C13.1385 3.05574 14.7122 2.3501 16.44 2.3501C19.9277 2.3501 22.75 5.18939 22.75 8.6901C22.75 12.4396 21.0107 15.4002 18.9342 17.5277C16.8683 19.6444 14.4235 20.9862 12.8657 21.5187C12.5914 21.6148 12.2773 21.6501 12 21.6501C11.7227 21.6501 11.4086 21.6148 11.1343 21.5187C9.57655 20.9862 7.13169 19.6444 5.06577 17.5277C2.98932 15.4002 1.25 12.4396 1.25 8.6901Z" style="stroke: var(--stroke); fill:var(--fill)" />
<path stroke-width="2" fill-rule="evenodd" clip-rule="evenodd" d="M19.7245 10.2553C20.1197 10.3793 20.3396 10.8002 20.2156 11.1954C19.3678 13.8974 17.6284 16.0256 15.8181 17.5708C15.5031 17.8397 15.0297 17.8023 14.7607 17.4872C14.4918 17.1722 14.5292 16.6988 14.8443 16.4299C16.5095 15.0085 18.0447 13.1038 18.7844 10.7464C18.9084 10.3512 19.3293 10.1313 19.7245 10.2553Z" style="fill: var(--fill, #323232); opacity:var(--opacity)"/>
</g>
</g>
</symbol>

<symbol id="icon-Wallet" style="fill: var(--green-2, #78c851)" viewBox="0 0 512 512">
<g>
	<g>
		<path d="M494.558,261.046h-0.563V143.455c0-14.581-11.863-26.444-26.444-26.444h-4.731l-10.772-56.656
			c-0.87-4.577-3.47-8.541-7.322-11.162c-3.852-2.621-8.494-3.585-13.07-2.715l-40.132,7.63L376.58,11.675
			c-1.547-4.394-4.714-7.923-8.916-9.936c-4.201-2.013-8.934-2.27-13.33-0.721L24.839,117.065C11.003,117.898,0,129.413,0,143.455
			v342.084c0,14.581,11.863,26.444,26.444,26.444h441.108c14.581,0,26.444-11.863,26.444-26.444V367.947h0.563
			c9.618,0,17.442-7.824,17.442-17.442v-72.018C512,268.871,504.176,261.046,494.558,261.046z M359.94,16.938
			c0.055-0.019,0.218-0.078,0.43,0.024c0.21,0.1,0.268,0.267,0.287,0.321l14.094,40.016l-16.807,3.195
			c-4.579,0.871-7.586,5.289-6.715,9.868c0.871,4.579,5.286,7.587,9.868,6.715l73.711-14.015c0.056-0.01,0.228-0.044,0.422,0.088
			c0.194,0.132,0.226,0.304,0.236,0.36l10.172,53.503H151.043l174.055-33.092c4.579-0.87,7.586-5.288,6.715-9.868
			c-0.871-4.579-5.287-7.588-9.868-6.715l-228.4,43.425L359.94,16.938z M477.117,485.538c0,5.274-4.291,9.565-9.565,9.565H26.444
			c-5.274,0-9.565-4.291-9.565-9.565v-9.565h18.567c4.661,0,8.44-3.779,8.44-8.44s-3.779-8.44-8.44-8.44H16.879V169.899h18.567
			c4.661,0,8.44-3.779,8.44-8.44s-3.779-8.44-8.44-8.44H16.879v-9.565c0-5.274,4.291-9.565,9.565-9.565h441.108
			c5.274,0,9.565,4.291,9.565,9.565v117.591h-54.576c-29.472,0-53.451,23.978-53.451,53.451c0,29.472,23.978,53.451,53.451,53.451
			h54.576V485.538z M495.121,350.505c0,0.309-0.252,0.563-0.563,0.563h-72.018c-20.165,0-36.571-16.406-36.571-36.571
			c0-20.166,16.406-36.571,36.571-36.571h72.018c0.311,0,0.563,0.253,0.563,0.563V350.505z"/>
	</g>
</g>
<g>
	<g>
		<path d="M89.459,459.094H71.455c-4.661,0-8.44,3.779-8.44,8.44s3.779,8.44,8.44,8.44h18.004c4.661,0,8.44-3.779,8.44-8.44
			S94.12,459.094,89.459,459.094z"/>
	</g>
</g>
<g>
	<g>
		<path d="M89.459,153.02H71.455c-4.661,0-8.44,3.779-8.44,8.44s3.779,8.44,8.44,8.44h18.004c4.661,0,8.44-3.779,8.44-8.44
			S94.12,153.02,89.459,153.02z"/>
	</g>
</g>
<g>
	<g>
		<path d="M143.473,459.094h-18.004c-4.661,0-8.44,3.779-8.44,8.44s3.779,8.44,8.44,8.44h18.004c4.661,0,8.44-3.779,8.44-8.44
			S148.133,459.094,143.473,459.094z"/>
	</g>
</g>
<g>
	<g>
		<path d="M143.473,153.02h-18.004c-4.661,0-8.44,3.779-8.44,8.44s3.779,8.44,8.44,8.44h18.004c4.661,0,8.44-3.779,8.44-8.44
			S148.133,153.02,143.473,153.02z"/>
	</g>
</g>
<g>
	<g>
		<path d="M197.486,459.094h-18.004c-4.661,0-8.44,3.779-8.44,8.44s3.779,8.44,8.44,8.44h18.004c4.661,0,8.44-3.779,8.44-8.44
			S202.147,459.094,197.486,459.094z"/>
	</g>
</g>
<g>
	<g>
		<path d="M197.486,153.02h-18.004c-4.661,0-8.44,3.779-8.44,8.44s3.779,8.44,8.44,8.44h18.004c4.661,0,8.44-3.779,8.44-8.44
			S202.147,153.02,197.486,153.02z"/>
	</g>
</g>
<g>
	<g>
		<path d="M251.499,459.094h-18.004c-4.661,0-8.44,3.779-8.44,8.44s3.779,8.44,8.44,8.44h18.004c4.661,0,8.44-3.779,8.44-8.44
			S256.16,459.094,251.499,459.094z"/>
	</g>
</g>
<g>
	<g>
		<path d="M251.499,153.02h-18.004c-4.661,0-8.44,3.779-8.44,8.44s3.779,8.44,8.44,8.44h18.004c4.661,0,8.44-3.779,8.44-8.44
			S256.16,153.02,251.499,153.02z"/>
	</g>
</g>
<g>
	<g>
		<path d="M305.512,459.094h-18.004c-4.661,0-8.44,3.779-8.44,8.44s3.779,8.44,8.44,8.44h18.004c4.661,0,8.44-3.779,8.44-8.44
			S310.173,459.094,305.512,459.094z"/>
	</g>
</g>
<g>
	<g>
		<path d="M305.512,153.02h-18.004c-4.661,0-8.44,3.779-8.44,8.44s3.779,8.44,8.44,8.44h18.004c4.661,0,8.44-3.779,8.44-8.44
			S310.173,153.02,305.512,153.02z"/>
	</g>
</g>
<g>
	<g>
		<path d="M359.525,459.094h-18.004c-4.661,0-8.44,3.779-8.44,8.44s3.779,8.44,8.44,8.44h18.004c4.661,0,8.44-3.779,8.44-8.44
			S364.186,459.094,359.525,459.094z"/>
	</g>
</g>
<g>
	<g>
		<path d="M359.525,153.02h-18.004c-4.661,0-8.44,3.779-8.44,8.44s3.779,8.44,8.44,8.44h18.004c4.661,0,8.44-3.779,8.44-8.44
			S364.186,153.02,359.525,153.02z"/>
	</g>
</g>
<g>
	<g>
		<path d="M413.538,459.094h-18.004c-4.661,0-8.44,3.779-8.44,8.44s3.779,8.44,8.44,8.44h18.004c4.661,0,8.44-3.779,8.44-8.44
			S418.199,459.094,413.538,459.094z"/>
	</g>
</g>
<g>
	<g>
		<path d="M413.538,153.02h-18.004c-4.661,0-8.44,3.779-8.44,8.44s3.779,8.44,8.44,8.44h18.004c4.661,0,8.44-3.779,8.44-8.44
			S418.199,153.02,413.538,153.02z"/>
	</g>
</g>
<g>
	<g>
		<path d="M449.547,441.09c-4.661,0-8.44,3.779-8.44,8.44v18.004c0,4.662,3.779,8.44,8.44,8.44c4.661,0,8.44-3.779,8.44-8.44V449.53
			C457.987,444.869,454.208,441.09,449.547,441.09z"/>
	</g>
</g>
<g>
	<g>
		<path d="M449.547,153.02c-4.661,0-8.44,3.779-8.44,8.44v18.004c0,4.662,3.779,8.44,8.44,8.44c4.661,0,8.44-3.779,8.44-8.44
			v-18.004C457.987,156.798,454.208,153.02,449.547,153.02z"/>
	</g>
</g>
<g>
	<g>
		<path d="M449.547,207.033c-4.661,0-8.44,3.779-8.44,8.44v18.004c0,4.662,3.779,8.44,8.44,8.44c4.661,0,8.44-3.779,8.44-8.44
			v-18.004C457.987,210.812,454.208,207.033,449.547,207.033z"/>
	</g>
</g>
<g>
	<g>
		<path d="M449.547,387.077c-4.661,0-8.44,3.779-8.44,8.44v18.004c0,4.662,3.779,8.44,8.44,8.44c4.661,0,8.44-3.779,8.44-8.44
			v-18.004C457.987,390.856,454.208,387.077,449.547,387.077z"/>
	</g>
</g>
<g>
	<g>
		<path d="M422.541,297.055c-9.618,0-17.442,7.824-17.442,17.442c0,9.618,7.824,17.442,17.442,17.442
			c9.618,0,17.442-7.824,17.442-17.442C439.982,304.879,432.158,297.055,422.541,297.055z"/>
	</g>
</g>
<g>
	<g>
		<path d="M241.934,308.053v-65.798c27.575,2.217,46.136,15.045,46.136,26.668c0,4.661,3.779,8.44,8.44,8.44s8.44-3.779,8.44-8.44
			c0-22.851-27.068-41.094-63.015-43.584v-9.866c0-4.661-3.779-8.44-8.44-8.44s-8.44,3.779-8.44,8.44v9.866
			c-35.947,2.491-63.015,20.734-63.015,43.584c0,30.612,29.107,42.558,63.015,52.017v65.798
			c-27.575-2.216-46.136-15.044-46.136-26.668c0-4.661-3.779-8.44-8.44-8.44s-8.44,3.779-8.44,8.44
			c0,22.851,27.068,41.094,63.015,43.584v9.866c0,4.661,3.779,8.44,8.44,8.44s8.44-3.779,8.44-8.44v-9.866
			c35.947-2.491,63.015-20.734,63.015-43.584C304.949,329.458,275.842,317.512,241.934,308.053z M225.055,303.36
			c-34.23-10.112-46.136-19.297-46.136-34.437c0-11.623,18.561-24.451,46.136-26.668V303.36z M241.934,386.738v-61.105
			c34.23,10.113,46.136,19.298,46.136,34.437C288.07,371.693,269.509,384.521,241.934,386.738z"/>
	</g>
</g>
</symbol>

<symbol id="icon-Gift" style="fill: var(--green-2, #78c851)" viewBox="0 0 512 512">
<g>
	<g>
		<path d="M506.827,153.306c-4.217-5.025-10.617-7.909-17.559-7.909h-97.924l82.107-27.587c4.266-1.433,6.562-6.054,5.129-10.32
			c-1.434-4.267-6.056-6.562-10.319-5.129l-44.95,15.102c8.411-5.702,15.773-11.369,20.929-16.584
			c8.446-8.542,13.19-19.771,13.013-30.806c-0.148-9.212-3.728-17.605-10.08-23.63c-14.347-13.606-39.009-11.539-54.977,4.61
			c-15.346,15.519-34.154,50.24-46.148,74.198c-0.608-3.994-1.294-8.245-2.061-12.637c-5.113-29.248-11.157-49.505-17.964-60.207
			c-4.756-7.475-12.344-12.564-21.367-14.329c-10.713-2.097-22.466,0.687-32.243,7.634c-18.364,13.051-24.701,37.189-14.128,53.811
			c4.273,6.718,11.772,14.124,20.505,21.396l-48.405-18.45c-4.207-1.603-8.915,0.507-10.517,4.712
			c-1.603,4.206,0.507,8.915,4.712,10.517l72.667,27.697H193.744c-13.581,0-26.089,10.593-28.475,24.118l-49.044,278.141
			c-1.234,7.003,0.51,13.943,4.785,19.039c4.217,5.026,10.617,7.909,17.559,7.909h295.525c13.582,0,26.09-10.593,28.475-24.118
			l49.043-278.14C512.847,165.343,511.104,158.403,506.827,153.306z M403.784,62.515c9.779-9.889,24.212-11.794,32.173-4.244
			c4.034,3.826,4.946,8.673,5.001,12.067c0.108,6.682-2.92,13.639-8.306,19.085c-14.482,14.645-50.398,34.365-73.583,46.288
			C370.5,112.637,389.369,77.094,403.784,62.515z M272.036,90.778c-5.89-9.257-1.394-23.809,9.818-31.778
			c4.873-3.464,10.386-5.31,15.624-5.31c1.374,0,2.729,0.127,4.049,0.385c3.251,0.636,7.753,2.38,10.744,7.084
			c9.078,14.27,15.782,51.984,19.167,76.894C310.954,125.351,281.005,104.876,272.036,90.778z M305.719,161.696l-4.438,25.171
			l-20.733-25.171H305.719z M259.434,161.697v-0.001l38.124,46.285l-10.071,57.113L202.32,161.697H259.434z M181.32,172.346
			c0.416-2.359,1.67-4.59,3.389-6.401l99.056,120.262l-10.071,57.113L172.777,220.799L181.32,172.346z M138.569,458.308
			c-2.173,0-3.928-0.721-5.073-2.087c-1.189-1.417-1.622-3.453-1.22-5.733l9.19-52.119l49.37,59.939H138.569z M194.117,367.319
			l62.059,75.345l-2.759,15.644H211.95v0l-66.76-81.053l10.071-57.113l17.403,21.129c1.611,1.956,3.943,2.967,6.294,2.967
			c1.823,0,3.658-0.61,5.176-1.859c3.474-2.861,3.97-7.997,1.109-11.471l-26.26-31.881l10.071-57.113l100.917,122.522L259.9,421.55
			l-53.203-64.592c-2.861-3.474-7.997-3.971-11.47-1.109C191.753,358.709,191.257,363.845,194.117,367.319z M269.967,458.308
			l52.3-296.611h35.602l-52.3,296.611H269.967z M322.12,458.308l4.438-25.172l20.733,25.172H322.12z M368.404,458.308
			l-38.124-46.286l10.071-57.113l85.167,103.399H368.404z M446.518,447.657c-0.416,2.359-1.669,4.59-3.388,6.401l-99.057-120.262
			l10.071-57.113l100.917,122.521L446.518,447.657z M472.579,299.862l-60.358-73.278c-2.861-3.474-7.997-3.971-11.47-1.109
			c-3.474,2.861-3.97,7.997-1.109,11.47l69.214,84.031l-10.071,57.113L357.867,255.568l10.071-57.113l10.235,12.426
			c1.611,1.957,3.943,2.968,6.294,2.968c1.823,0,3.658-0.609,5.176-1.859c3.473-2.861,3.97-7.997,1.109-11.47l-19.092-23.179
			l2.759-15.644h41.469l66.76,81.052L472.579,299.862z M495.563,169.516l-9.19,52.119l-49.37-59.938h52.267
			c2.173,0,3.929,0.721,5.074,2.086C495.532,165.199,495.966,167.235,495.563,169.516z"/>
	</g>
</g>
<g>
	<g>
		<path d="M138.527,171.475H8.149c-4.5,0-8.149,3.648-8.149,8.149c0,4.5,3.648,8.149,8.149,8.149h130.379
			c4.5,0,8.149-3.648,8.149-8.149C146.676,175.123,143.027,171.475,138.527,171.475z"/>
	</g>
</g>
<g>
	<g>
		<path d="M121.143,275.778H60.3c-4.5,0-8.149,3.648-8.149,8.149s3.648,8.149,8.149,8.149h60.843c4.5,0,8.149-3.648,8.149-8.149
			S125.644,275.778,121.143,275.778z"/>
	</g>
</g>
<g>
	<g>
		<path d="M129.835,223.626H34.224c-4.5,0-8.149,3.648-8.149,8.149c0,4.5,3.648,8.149,8.149,8.149h95.611
			c4.5,0,8.149-3.648,8.149-8.149C137.984,227.275,134.336,223.626,129.835,223.626z"/>
	</g>
</g>
</symbol>

<symbol id="icon-Free-shiping" style="fill: var(--green-2, #78c851)" viewBox="0 0 512 512">
<g>
	<g>
		<path d="M476.158,286.938l-13.259-53.035c3.625-0.77,6.345-3.986,6.345-7.839v-8.551c0-18.566-15.105-33.67-33.67-33.67h-60.392
			v-17.637c0-9.136-7.432-16.568-16.568-16.568H246.32l68.24-27.296c4.111-1.644,6.11-6.31,4.466-10.421
			c-1.644-4.11-6.307-6.111-10.421-4.466l-55.874,22.349c17.026-10.924,33.871-22.947,40.284-31.355
			c12.485-16.369,9.323-39.843-7.046-52.328c-16.369-12.486-39.843-9.323-52.328,7.046c-9.122,11.962-21.158,45.573-28.948,69.258
			c-7.79-23.683-19.826-57.296-28.948-69.258c-12.484-16.369-35.959-19.53-52.328-7.046c-16.369,12.484-19.53,35.958-7.046,52.328
			c6.413,8.409,23.257,20.431,40.284,31.355l-55.874-22.349c-4.113-1.647-8.777,0.355-10.421,4.466
			c-1.645,4.111,0.355,8.777,4.466,10.421l68.24,27.296H50.772c-9.136,0-16.568,7.432-16.568,16.568v145.37
			c0,4.427,3.589,8.017,8.017,8.017c4.427,0,8.017-3.589,8.017-8.017v-145.37c0-0.295,0.239-0.534,0.534-0.534h307.841
			c0.295,0,0.534,0.239,0.534,0.534v145.372c0,4.427,3.589,8.017,8.017,8.017c4.427,0,8.017-3.589,8.017-8.017v-9.088h94.566
			c0.009,0,0.016,0.002,0.025,0.002s0.017-0.001,0.026-0.001c11.636,0.009,21.516,7.647,24.908,18.171h-24.928
			c-4.427,0-8.017,3.589-8.017,8.017v17.102c0,13.851,11.268,25.119,25.119,25.119h9.086v35.273h-20.962
			c-6.886-19.882-25.787-34.205-47.982-34.205s-41.097,14.322-47.982,34.205h-3.86V345.78c0-4.427-3.589-8.017-8.017-8.017
			c-4.427,0-8.017,3.589-8.017,8.017v60.392H192.817c-6.886-19.882-25.787-34.205-47.982-34.205s-41.097,14.322-47.982,34.205
			H50.772c-0.295,0-0.534-0.239-0.534-0.534v-17.637h34.739c4.427,0,8.017-3.589,8.017-8.017s-3.589-8.017-8.017-8.017H8.017
			c-4.427,0-8.017,3.589-8.017,8.017s3.589,8.017,8.017,8.017h26.188v17.637c0,9.136,7.432,16.568,16.568,16.568h43.304
			c-0.002,0.178-0.014,0.355-0.014,0.534c0,27.995,22.777,50.772,50.772,50.772s50.772-22.777,50.772-50.772
			c0-0.18-0.012-0.356-0.014-0.534h180.67c-0.002,0.178-0.014,0.355-0.014,0.534c0,27.995,22.777,50.772,50.772,50.772
			c27.995,0,50.772-22.777,50.772-50.772c0-0.18-0.012-0.356-0.014-0.534h26.203c4.427,0,8.017-3.589,8.017-8.017v-85.511
			C512,307.564,496.423,290.022,476.158,286.938z M172.9,121.059c-31.623-19.651-41.003-28.692-43.78-32.334
			c-7.123-9.339-5.319-22.732,4.021-29.855c3.85-2.936,8.388-4.355,12.893-4.355c6.422,0,12.776,2.886,16.963,8.376
			c7.755,10.168,19.9,44.391,27.918,69.052C185.504,128.757,179.284,125.028,172.9,121.059z M218.473,131.942
			c8.018-24.66,20.163-58.882,27.917-69.052c7.123-9.339,20.516-11.142,29.855-4.02c9.34,7.123,11.143,20.516,4.021,29.855
			c-2.777,3.641-12.157,12.683-43.778,32.333C230.105,125.026,223.885,128.756,218.473,131.942z M375.182,199.875h60.392
			c9.725,0,17.637,7.912,17.637,17.637v0.534h-78.029V199.875z M375.182,286.456V234.08h71.235l13.094,52.376H375.182z
			 M144.835,457.479c-19.155,0-34.739-15.584-34.739-34.739s15.584-34.739,34.739-34.739c19.155,0,34.739,15.584,34.739,34.739
			S163.99,457.479,144.835,457.479z M427.023,457.479c-19.155,0-34.739-15.584-34.739-34.739s15.584-34.739,34.739-34.739
			c19.155,0,34.739,15.584,34.739,34.739S446.178,457.479,427.023,457.479z M495.967,354.865h-9.086
			c-5.01,0-9.086-4.076-9.086-9.086v-9.086h18.171V354.865z"/>
	</g>
</g>
<g>
	<g>
		<path d="M144.835,406.172c-9.136,0-16.568,7.432-16.568,16.568s7.432,16.568,16.568,16.568c9.136,0,16.568-7.432,16.568-16.568
			S153.971,406.172,144.835,406.172z"/>
	</g>
</g>
<g>
	<g>
		<path d="M427.023,406.172c-9.136,0-16.568,7.432-16.568,16.568s7.432,16.568,16.568,16.568c9.136,0,16.568-7.432,16.568-16.568
			S436.159,406.172,427.023,406.172z"/>
	</g>
</g>
<g>
	<g>
		<path d="M332.96,371.967H213.244c-4.427,0-8.017,3.589-8.017,8.017s3.589,8.017,8.017,8.017H332.96
			c4.427,0,8.017-3.589,8.017-8.017S337.388,371.967,332.96,371.967z"/>
	</g>
</g>
<g>
	<g>
		<path d="M127.733,337.763H25.119c-4.427,0-8.017,3.589-8.017,8.017s3.589,8.017,8.017,8.017h102.614
			c4.427,0,8.017-3.589,8.017-8.017S132.16,337.763,127.733,337.763z"/>
	</g>
</g>
<g>
	<g>
		<path d="M127.733,218.046H93.528c-4.427,0-8.017,3.589-8.017,8.017v68.409c0,4.427,3.589,8.017,8.017,8.017
			s8.017-3.589,8.017-8.017v-26.188h17.637c4.427,0,8.017-3.589,8.017-8.017s-3.589-8.017-8.017-8.017h-17.637V234.08h26.188
			c4.427,0,8.017-3.589,8.017-8.017C135.749,221.636,132.16,218.046,127.733,218.046z"/>
	</g>
</g>
<g>
	<g>
		<path d="M190.822,272.043c8.023-5.255,13.337-14.317,13.337-24.602c0-16.209-13.186-29.395-29.395-29.395h-21.378
			c-4.427,0-8.017,3.589-8.017,8.017v68.409c0,4.427,3.589,8.017,8.017,8.017s8.017-3.589,8.017-8.017v-17.637h13.346l14.722,22.083
			c1.545,2.317,4.086,3.571,6.677,3.571c1.529,0,3.073-0.436,4.439-1.348c3.685-2.455,4.68-7.433,2.223-11.116L190.822,272.043z
			 M174.764,260.802h-13.361V234.08h13.361c7.368,0,13.361,5.993,13.361,13.361C188.125,254.809,182.132,260.802,174.764,260.802z"
			/>
	</g>
</g>
<g>
	<g>
		<path d="M256,286.456h-26.188v-18.198c0.177,0.012,0.354,0.027,0.534,0.027h17.102c4.427,0,8.017-3.589,8.017-8.017
			s-3.589-8.017-8.017-8.017h-17.102c-0.181,0-0.357,0.015-0.534,0.027V234.08H256c4.427,0,8.017-3.589,8.017-8.017
			c0-4.427-3.589-8.017-8.017-8.017h-34.205c-4.427,0-8.017,3.589-8.017,8.017v68.409c0,4.427,3.589,8.017,8.017,8.017H256
			c4.427,0,8.017-3.589,8.017-8.017S260.427,286.456,256,286.456z"/>
	</g>
</g>
<g>
	<g>
		<path d="M315.858,286.456H289.67v-18.171h9.086c4.427,0,8.017-3.589,8.017-8.017s-3.589-8.017-8.017-8.017h-9.086V234.08h26.188
			c4.427,0,8.017-3.589,8.017-8.017c0-4.427-3.589-8.017-8.017-8.017h-34.205c-4.427,0-8.017,3.589-8.017,8.017v68.409
			c0,4.427,3.589,8.017,8.017,8.017h34.205c4.427,0,8.017-3.589,8.017-8.017S320.285,286.456,315.858,286.456z"/>
	</g>
</g>
</symbol>

<symbol style="fill: var(--green-2, #78c851)" id="icon-Support" viewBox="0 0 512 512">
<g>
	<g>
		<path d="M436.003,421.761c-1.462-10.632-7.621-19.724-16.9-24.943l-88.568-49.819c-13.557-7.626-30.708-5.27-41.708,5.729
			l-31.101,31.101c-6.371,6.371-16.571,7.165-23.729,1.847c-21.488-15.966-42.489-34.167-62.421-54.099
			c-19.931-19.931-38.132-40.933-54.099-62.421c-5.318-7.157-4.524-17.358,1.847-23.729l31.101-31.101
			c11-11,13.356-28.151,5.729-41.708l-49.818-88.568c-5.219-9.279-14.31-15.438-24.943-16.899
			c-11.141-1.53-22.176,2.239-30.278,10.344l-32.803,32.803C-4.862,133.472-6.08,174.96,14.881,227.121
			c20.051,49.898,58.206,104.49,107.434,153.718c49.229,49.23,103.82,87.384,153.718,107.434
			c24.708,9.929,47.018,14.881,66.124,14.881c21.228,0,38.501-6.115,50.698-18.312l32.803-32.803
			C433.762,443.936,437.532,432.9,436.003,421.761z M413.929,440.311l-5.733,5.731l-75.506-41.185
			c-4.022-2.196-9.059-0.712-11.252,3.31c-2.194,4.021-0.712,9.059,3.31,11.252l71.223,38.849l-14.846,14.846
			c-17.915,17.914-53.966,17.829-98.909-0.23c-47.869-19.237-100.491-56.09-148.174-103.773
			C86.362,321.428,49.507,268.805,30.271,220.936c-18.06-44.945-18.144-80.995-0.23-98.909l14.843-14.846l7.94,14.556
			c1.506,2.76,4.351,4.324,7.288,4.324c1.341,0,2.703-0.326,3.963-1.014c4.021-2.194,5.504-7.232,3.31-11.253L57.112,94.956
			l5.731-5.731c3.768-3.766,8.66-5.815,13.723-5.815c0.853,0,1.712,0.059,2.57,0.176c5.445,0.748,10.091,3.881,12.743,8.598
			l49.818,88.568c3.994,7.102,2.761,16.085-3.001,21.846l-14.799,14.8L85.06,146.196c-2.193-4.021-7.231-5.504-11.252-3.31
			c-4.021,2.193-5.504,7.231-3.31,11.252l41.174,75.484l-4.076,4.076c-12.144,12.144-13.619,31.641-3.432,45.351
			c16.448,22.135,35.182,43.755,55.683,64.257c20.502,20.502,42.122,39.237,64.257,55.683c13.709,10.188,33.205,8.712,45.351-3.432
			l4.076-4.076l18.834,10.273c1.262,0.689,2.622,1.014,3.963,1.014c2.937,0,5.782-1.564,7.288-4.324
			c2.194-4.021,0.712-9.059-3.31-11.252l-14.551-7.938l14.799-14.799c5.761-5.761,14.745-6.995,21.848-3.001l88.568,49.818
			c4.716,2.653,7.85,7.298,8.598,12.743C420.386,429.97,418.331,435.909,413.929,440.311z"/>
	</g>
</g>
<g>
	<g>
		<path d="M397.548,221.163h-9.399v-71.325c0-4.58-3.713-8.294-8.294-8.294c-4.58,0-8.294,3.713-8.294,8.294v71.325h-43.293
			l15.45-69.526c0.993-4.471-1.826-8.902-6.298-9.895c-4.473-0.995-8.901,1.826-9.895,6.297l-17.693,79.619
			c-0.546,2.456,0.052,5.026,1.627,6.989c1.574,1.962,3.953,3.104,6.469,3.104h53.632v27.092c0,4.58,3.713,8.294,8.294,8.294
			c4.58,0,8.294-3.713,8.294-8.294V237.75h9.399c4.58,0,8.294-3.713,8.294-8.294C405.841,224.876,402.128,221.163,397.548,221.163z"
			/>
	</g>
</g>
<g>
	<g>
		<path d="M291.39,256.549h-61.039c3.608-9.501,13.818-15.543,28.544-23.579c18.173-9.917,40.789-22.259,40.789-50.274
			c0-22.691-19.595-41.152-43.68-41.152s-43.68,18.46-43.68,41.152c0,4.58,3.713,8.294,8.294,8.294c4.58,0,8.294-3.713,8.294-8.294
			c0-13.545,12.154-24.565,27.092-24.565c14.938,0,27.092,11.019,27.092,24.565c-0.001,16.948-12.145,24.798-32.148,35.713
			c-18.104,9.88-38.625,21.079-38.625,46.433c0,4.58,3.713,8.294,8.294,8.294h70.772c4.58,0,8.294-3.713,8.294-8.294
			S295.97,256.549,291.39,256.549z"/>
	</g>
</g>
<g>
	<g>
		<path d="M466.694,354.022l-16.152,3.23c39.25-38.12,61.458-90.257,61.458-145.489C512,99.875,420.972,8.846,309.083,8.846
			c-65.942,0-128.006,32.23-166.02,86.216c-2.637,3.745-1.739,8.919,2.006,11.557c3.744,2.637,8.918,1.739,11.556-2.006
			c34.913-49.58,91.906-79.18,152.459-79.18c102.742,0,186.33,83.587,186.33,186.33c0,51.459-21.008,99.983-58.043,135.117
			l3.698-18.486c0.898-4.492-2.015-8.861-6.507-9.759c-4.491-0.899-8.861,2.015-9.759,6.507l-8.846,44.233
			c-0.544,2.719,0.307,5.53,2.268,7.491c1.57,1.57,3.687,2.429,5.864,2.429c0.541,0,1.085-0.053,1.627-0.161l44.233-8.847
			c4.492-0.899,7.405-5.268,6.507-9.759C475.554,356.037,471.184,353.126,466.694,354.022z"/>
	</g>
</g>
<g>
	<g>
		<path d="M309.083,44.232c-4.58,0-8.294,3.713-8.294,8.294v17.693c0,4.58,3.713,8.294,8.294,8.294c4.58,0,8.294-3.713,8.294-8.294
			V52.526C317.376,47.946,313.664,44.232,309.083,44.232z"/>
	</g>
</g>
<g>
	<g>
		<path d="M468.32,203.47h-17.693c-4.58,0-8.294,3.713-8.294,8.294c0,4.58,3.713,8.294,8.294,8.294h17.693
			c4.58,0,8.294-3.713,8.294-8.294C476.614,207.183,472.9,203.47,468.32,203.47z"/>
	</g>
</g>
<g>
	<g>
		<path d="M190.649,133.809l-15.322-8.846c-3.968-2.291-9.039-0.931-11.329,3.035c-2.29,3.967-0.931,9.039,3.035,11.329
			l15.322,8.846c1.306,0.754,2.732,1.112,4.139,1.112c2.866,0,5.654-1.488,7.19-4.148
			C195.974,141.171,194.615,136.099,190.649,133.809z"/>
	</g>
</g>
<g>
	<g>
		<path d="M451.133,284.2l-15.322-8.847c-3.967-2.291-9.039-0.931-11.329,3.035s-0.932,9.039,3.035,11.329l15.322,8.846
			c1.306,0.754,2.732,1.112,4.139,1.112c2.866,0,5.654-1.488,7.19-4.148C456.459,291.562,455.1,286.49,451.133,284.2z"/>
	</g>
</g>
<g>
	<g>
		<path d="M392.849,66.678c-3.967-2.291-9.039-0.931-11.329,3.035l-8.846,15.322c-2.29,3.967-0.931,9.039,3.035,11.329
			c1.306,0.754,2.731,1.112,4.139,1.112c2.866,0,5.654-1.488,7.19-4.148l8.847-15.322C398.175,74.041,396.816,68.968,392.849,66.678
			z"/>
	</g>
</g>
<g>
	<g>
		<path d="M242.457,327.162c-3.967-2.291-9.038-0.931-11.329,3.035l-8.846,15.322c-2.29,3.967-0.931,9.039,3.035,11.329
			c1.306,0.754,2.732,1.112,4.139,1.112c2.866,0,5.654-1.488,7.19-4.148l8.847-15.322
			C247.783,334.524,246.424,329.452,242.457,327.162z"/>
	</g>
</g>
<g>
	<g>
		<path d="M454.169,127.998c-2.29-3.967-7.364-5.326-11.329-3.035l-15.322,8.847c-3.967,2.29-5.326,7.362-3.035,11.329
			c1.536,2.661,4.324,4.148,7.19,4.148c1.407,0,2.833-0.358,4.139-1.112l15.322-8.846
			C455.1,137.037,456.459,131.964,454.169,127.998z"/>
	</g>
</g>
<g>
	<g>
		<path d="M193.684,278.389c-2.29-3.967-7.363-5.327-11.329-3.035l-15.322,8.847c-3.967,2.29-5.326,7.362-3.035,11.329
			c1.536,2.661,4.324,4.148,7.19,4.148c1.407,0,2.833-0.358,4.139-1.112l15.322-8.846
			C194.615,287.428,195.974,282.355,193.684,278.389z"/>
	</g>
</g>
<g>
	<g>
		<path d="M245.493,85.036l-8.846-15.322c-2.29-3.968-7.363-5.327-11.329-3.035c-3.967,2.29-5.326,7.363-3.035,11.329l8.847,15.322
			c1.537,2.661,4.325,4.148,7.19,4.148c1.407,0,2.833-0.358,4.139-1.112C246.424,94.075,247.783,89.002,245.493,85.036z"/>
	</g>
</g>
<g>
	<g>
		<path d="M395.884,345.519l-8.846-15.322c-2.29-3.967-7.363-5.326-11.329-3.035c-3.967,2.29-5.326,7.362-3.035,11.329l8.846,15.322
			c1.536,2.661,4.324,4.148,7.19,4.148c1.407,0,2.833-0.358,4.139-1.112C396.815,354.558,398.174,349.486,395.884,345.519z"/>
	</g>
</g>
</symbol>

</defs>
</svg>
